HIERARCHY
ROOT Hips
{
  OFFSET 0 0 0
  CHANNELS 6 Xposition Yposition Zposition Zrotation Yrotation Xrotation
  JOINT LeftThigh
  {
    OFFSET 8.409438 0 -5.917753
    CHANNELS 3 Zrotation Yrotation Xrotation
    JOINT LeftLeg
    {
      OFFSET 0 0 -42.358652
      CHANNELS 3 Zrotation Yrotation Xrotation
      JOINT LeftFoot
      {
        OFFSET 0 0 -39.357303
        CHANNELS 3 Zrotation Yrotation Xrotation
      }
    }
  }
  JOINT RightThigh
  {
    OFFSET -8.409438 0 -5.917753
    CHANNELS 3 Zrotation Yrotation Xrotation
    JOINT RightLeg
    {
      OFFSET 0 0 -42.358652
      CHANNELS 3 Zrotation Yrotation Xrotation
      JOINT RightFoot
      {
        OFFSET 0 0 -39.357303
        CHANNELS 3 Zrotation Yrotation Xrotation
      }
    }
  }
  JOINT SpineLow
  {
    OFFSET 0 0 4.719101
    CHANNELS 3 Zrotation Yrotation Xrotation
    JOINT SpineMid
    {
      OFFSET 0 0 12.899191
      CHANNELS 3 Zrotation Yrotation Xrotation
      JOINT Chest
      {
        OFFSET 0 0 12.899191
        CHANNELS 3 Zrotation Yrotation Xrotation
        JOINT LeftShoulder
        {
          OFFSET 7.550562 1.41573 9.438202
          CHANNELS 3 Zrotation Yrotation Xrotation
          JOINT LeftArm
          {
            OFFSET 9.155056 0 4.247191
            CHANNELS 3 Zrotation Yrotation Xrotation
            JOINT LeftForearm
            {
              OFFSET 0 0 25.771955
              CHANNELS 3 Zrotation Yrotation Xrotation
              JOINT LeftHand
              {
                OFFSET 0 0 25.197169
                CHANNELS 3 Zrotation Yrotation Xrotation
              }
            }
          }
        }
        JOINT RightShoulder
        {
          OFFSET -7.550562 1.41573 9.438202
          CHANNELS 3 Zrotation Yrotation Xrotation
          JOINT RightArm
          {
            OFFSET -9.155056 0 4.247191
            CHANNELS 3 Zrotation Yrotation Xrotation
            JOINT RightForearm
            {
              OFFSET 0 0 -25.771955
              CHANNELS 3 Zrotation Yrotation Xrotation
              JOINT RightHand
              {
                OFFSET 0 0 -25.197169
                CHANNELS 3 Zrotation Yrotation Xrotation
              }
            }
          }
        }
        JOINT Neck
        {
          OFFSET 0 0 15.101124
          CHANNELS 3 Zrotation Yrotation Xrotation
          JOINT Head
          {
            OFFSET 0 0 11.325843
            CHANNELS 3 Zrotation Yrotation Xrotation
            End Site
            {
              OFFSET 0 0 14.157303
            }
          }
        }
      }
    }
  }
}
MOTION
Frames: 14
Frame Time: 0.0
0.0  93.25843  0.0  -1.18143  11.950125  -89.362937  -7.208419  -16.6611  -9.125105  -4.196237  -2.14113  11.76116  8.581528  0.509419  6.774768  -21.187839  3.865585  -7.193716  -16.666832  7.984906  6.872488  3.668673  1.272752  0.795765  2.155956  0.459341  -0.222749  5.889473  1.274252  -0.567441  5.889473  1.274252  -0.567441  -35.052128  19.345639  3.056992  146.822131  44.199166  -144.827874  -21.781752  17.275575  79.087293  89.759613  -14.06338  -16.159727  10.955509  -26.461487  31.120677  91.472125  53.654148  42.373874  18.639601  26.766052  -17.895399  85.687809  -7.868653  33.290159  -16.448606  1.947017  11.982178  -12.379099  1.13909  9.045982  
0.0  93.25843  0.0  -1.300685  12.643031  -89.319065  -8.355222  -16.989038  -10.494549  -4.176588  -1.627056  13.663228  8.714597  0.609608  6.860183  -21.007352  3.521857  -7.362903  -16.836118  8.57464  7.521942  3.465484  1.419232  0.803681  2.037658  0.424836  -0.233007  5.566126  1.179911  -0.600661  5.566126  1.179911  -0.600661  -34.822425  19.459674  3.109428  147.179808  44.24154  -144.705866  -21.891602  17.229758  79.058162  89.558542  -13.909634  -15.999016  10.871923  -26.084329  31.110111  91.761096  53.314827  42.582619  18.153763  27.283782  -18.427026  85.57159  -7.317855  33.545528  -16.471693  2.003438  11.905947  -12.397134  1.183065  8.990333  
0.0  93.25843  0.0  -1.464615  13.183511  -89.331587  -8.435075  -17.279607  -11.37136  -4.807467  -1.008717  15.080164  8.778716  0.688329  6.841523  -20.611216  3.139  -7.51465  -17.272878  9.19713  8.14733  3.387586  1.548896  0.823809  1.922104  0.380262  -0.240764  5.250447  1.057769  -0.627465  5.250447  1.057769  -0.627465  -34.567488  19.662323  3.168628  147.603412  44.305667  -144.562258  -22.016836  17.316289  79.158773  89.533874  -13.703102  -15.923689  10.622669  -25.545002  31.110046  92.038911  52.933049  42.630449  17.434779  27.784503  -19.333193  85.391249  -6.743147  33.437282  -16.43935  2.086836  11.845777  -12.374125  1.247943  8.947206  
0.0  93.25843  0.0  -1.62119  13.704197  -89.346981  -9.30048  -17.599018  -12.641295  -4.593951  -0.475028  17.211161  8.733951  0.814141  6.733331  -20.232125  2.804191  -7.693158  -17.487482  9.881581  8.867287  3.421537  1.6632  0.861339  1.812404  0.333484  -0.246576  4.950867  0.929417  -0.648613  4.950867  0.929417  -0.648613  -34.29109  19.879894  3.247767  148.057353  44.384129  -144.400183  -21.993697  17.317946  79.454642  89.739541  -13.332159  -15.951599  10.473458  -25.014434  31.199224  92.30693  52.268761  42.854904  15.823872  28.350235  -20.584925  85.123105  -6.105982  33.007522  -16.453871  2.18999  11.802265  -12.386686  1.326304  8.917294  
0.0  93.25843  0.0  -1.82324  14.090196  -89.367876  -9.280245  -17.901476  -13.492035  -5.080263  0.148525  18.649116  8.81223  0.916852  6.724498  -19.988357  2.434281  -7.943849  -17.808652  10.514114  9.595883  3.355724  1.811347  0.858488  1.704077  0.285142  -0.260275  4.655001  0.797285  -0.690976  4.655001  0.797285  -0.690976  -33.926571  20.117008  3.366947  148.431174  44.496101  -144.300573  -21.778977  16.993082  80.014764  90.381118  -12.538344  -16.203946  10.04078  -24.36817  31.165808  92.141064  51.83645  42.529  14.389895  28.642621  -22.303645  84.733158  -5.489716  32.359936  -16.418336  2.273474  11.822738  -12.361618  1.389136  8.934661  
0.0  93.25843  0.0  -1.859101  14.500303  -89.320316  -9.598519  -18.039433  -14.466705  -4.703554  0.579251  20.685925  8.638205  1.02438  6.439915  -19.878545  2.16513  -8.335332  -18.189381  11.127413  10.341657  3.209764  1.977978  0.836238  1.604198  0.255597  -0.275652  4.382093  0.716563  -0.736164  4.382093  0.716563  -0.736164  -33.613126  20.345198  3.477767  149.488741  44.65338  -144.316986  -20.733875  16.859635  81.353995  91.612199  -11.12758  -16.709528  9.646452  -23.692327  31.16429  91.572583  51.492631  41.960148  12.550829  28.698252  -24.355629  84.250589  -4.894326  31.568782  -16.467533  2.373625  11.870478  -12.40055  1.46212  8.97332  
0.0  93.25843  0.0  -2.142832  14.48997  -89.276658  -9.100103  -18.264739  -15.203847  -5.226829  1.009254  21.906228  8.762636  1.145383  6.403432  -19.339451  1.641685  -8.711398  -18.406695  11.837725  11.08609  3.192302  2.168731  0.836726  1.544101  0.197712  -0.317313  4.218062  0.560415  -0.854335  4.218062  0.560415  -0.854335  -33.152666  20.472167  3.640677  149.932565  44.597859  -144.116991  -19.83478  15.67452  82.377133  93.259492  -9.130919  -17.293891  9.009074  -22.971137  31.003609  91.283126  50.832927  41.483307  10.219935  28.402341  -26.890043  83.707555  -4.343063  30.660912  -16.444997  2.447049  11.995989  -12.385581  1.514328  9.069309  
0.0  93.25843  0.0  -2.434721  14.262111  -89.139445  -8.029108  -18.27038  -15.852001  -4.923256  1.005425  23.890028  7.772456  1.156646  5.40999  -18.262603  1.037669  -9.082591  -18.400595  12.507065  11.926628  2.997962  2.310988  0.781322  1.505427  0.138017  -0.381745  4.112685  0.400831  -1.03442  4.112685  0.400831  -1.03442  -32.602071  20.489264  3.842528  151.671927  44.541762  -143.707888  -17.895405  14.81564  84.053392  94.984089  -6.738302  -17.76128  8.580707  -22.400459  30.866869  90.749287  50.215285  41.084416  7.36869  27.63364  -29.897763  83.173977  -3.891785  29.680316  -16.405783  2.525926  12.148932  -12.358365  1.570237  9.185934  
0.0  93.25843  0.0  -2.791798  13.481374  -88.946394  -6.452857  -18.306068  -16.500669  -5.800233  1.117491  24.687501  7.78208  1.270602  5.385087  -16.940316  0.255811  -9.690213  -18.472793  13.315409  12.71776  2.988298  2.498443  0.764681  1.5326  0.071953  -0.455328  4.187698  0.225422  -1.239466  4.187698  0.225422  -1.239466  -31.99809  20.434397  4.034532  152.88978  44.440423  -142.965983  -16.347466  13.133184  85.102797  96.602319  -4.243285  -17.960309  7.905228  -21.823788  30.378919  90.532484  49.150971  40.895749  4.125135  26.259645  -33.356374  82.628726  -3.608231  28.765197  -16.304182  2.589879  12.318507  -12.284195  1.615763  9.314317  
0.0  93.25843  0.0  -3.092901  12.136208  -88.772911  -4.518932  -18.308327  -16.885253  -6.520933  1.150288  25.250433  7.660844  1.37598  5.367522  -15.166147  -0.514656  -10.390045  -18.41686  14.156807  13.560826  3.499644  2.760272  0.855655  1.613732  0.026889  -0.524163  4.410156  0.10842  -1.430223  4.410156  0.10842  -1.430223  -31.227177  20.211403  4.290508  154.587625  44.325681  -142.02677  -14.652468  11.510031  86.209039  97.968235  -1.83965  -17.779324  7.372947  -21.41974  29.730893  90.237691  47.930849  40.799385  0.670701  24.240446  -37.180682  82.074666  -3.61517  27.846847  -16.157406  2.604995  12.496368  -12.17529  1.625367  9.447418  
0.0  93.25843  0.0  -3.289128  10.142267  -88.678738  -2.581189  -18.245923  -16.815621  -6.918552  1.060646  25.570598  7.40872  1.496582  5.2858  -13.012392  -1.214216  -11.066884  -18.346496  14.981669  14.324615  3.552078  2.984747  0.84515  1.819465  0.007332  -0.568359  4.972839  0.062767  -1.551992  4.972839  0.062767  -1.551992  -30.663583  19.862188  4.512671  156.474574  44.102911  -140.97435  -12.961476  9.931777  87.292657  99.200381  0.484692  -17.234704  6.611361  -21.304127  28.943419  89.94511  46.666583  41.034565  -2.745231  21.542839  -41.257623  81.322149  -3.867519  26.929834  -16.037695  2.596732  12.733385  -12.086562  1.615393  9.624461  
0.0  93.25843  0.0  -3.372902  7.727919  -88.543548  -0.743837  -18.009659  -16.40801  -7.366474  0.915773  25.483676  7.245702  1.635088  5.225923  -10.798589  -1.854101  -11.843285  -18.112834  15.748361  15.015481  3.850522  3.257463  0.873252  2.080833  0.007614  -0.606288  5.687148  0.072926  -1.655163  5.687148  0.072926  -1.655164  -30.162007  19.409937  4.665528  158.601192  43.759482  -139.866322  -11.323813  8.411644  88.38121  100.313232  2.731325  -16.348386  5.815613  -21.334369  28.096596  89.607956  45.410521  41.497585  -5.954642  18.164932  -45.523383  80.10238  -4.251161  25.981164  -15.908584  2.595314  12.99144  -11.99102  1.610304  9.817415  
0.0  93.25843  0.0  -3.376807  4.67599  -88.313896  1.215916  -17.653711  -15.805433  -7.599686  0.62965  25.276978  7.292766  1.795681  5.18006  -8.462093  -2.394073  -12.795754  -17.598355  16.354383  15.675861  4.029392  3.448605  0.866057  2.347634  0.018767  -0.645023  6.416003  0.113805  -1.759378  6.416003  0.113805  -1.759378  -29.210612  18.863816  4.686861  160.880168  43.256517  -138.796114  -9.742998  6.839113  89.528969  101.214776  4.938821  -15.137994  5.45264  -21.372166  27.266008  89.303788  44.168464  42.093151  -8.887031  13.934401  -49.904175  78.874336  -4.865578  25.072252  -15.441957  2.629495  13.25738  -11.643001  1.639146  10.015361  
0.0  93.25843  0.0  -3.309302  1.148977  -87.986604  2.714737  -17.260951  -15.029826  -7.107124  0.251311  25.023724  7.600609  1.945138  5.19793  -6.290332  -2.786391  -13.795974  -16.776254  16.66479  16.167119  4.289537  3.599077  0.852558  2.586768  0.026726  -0.71804  7.069171  0.149683  -1.957258  7.069171  0.149683  -1.957258  -27.798807  18.407177  4.616604  163.239359  42.515649  -137.92797  -8.155496  5.039698  90.539272  101.884382  6.915602  -13.634375  5.3628  -21.307499  26.690866  89.134581  42.912489  42.767303  -11.408252  8.639925  -54.360552  77.166435  -5.378018  24.471165  -14.619534  2.778663  13.615386  -11.030933  1.760393  10.283032  
